<svg width="640" height="340" viewBox="0 0 640 340" role="group" aria-label="Journey from Port on bearing 120° then 210°" class="stage-canvas" style="background:var(--stage-bg)"><defs><marker id="stage-arrow" viewBox="0 0 10 10" refX="8" refY="5" markerWidth="7" markerHeight="7" orient="auto-start-reverse"><path d="M0,0 L10,5 L0,10 z" fill="context-stroke"></path></marker></defs><g data-stage-content="true"><line x1="247.418" y1="112.195" x2="247.418" y2="35.122" stroke="var(--stage-muted)" stroke-width="1.2" opacity="1" stroke-linecap="round" stroke-dasharray="6 6"></line><text x="247.418" y="29.122" fill="var(--stage-muted)" font-size="12" font-weight="600" text-anchor="middle" dominant-baseline="middle" style="paint-order:stroke;stroke:var(--stage-bg);stroke-width:3;stroke-linejoin:round">N</text><line x1="392.582" y1="196.005" x2="392.582" y2="118.932" stroke="var(--stage-muted)" stroke-width="1.2" opacity="1" stroke-linecap="round" stroke-dasharray="6 6"></line><text x="392.582" y="112.932" fill="var(--stage-muted)" font-size="12" font-weight="600" text-anchor="middle" dominant-baseline="middle" style="paint-order:stroke;stroke:var(--stage-bg);stroke-width:3;stroke-linejoin:round">N</text><polyline points="247.418,77.512 250.441,77.644 253.441,78.039 256.395,78.694 259.28,79.604 262.076,80.762 264.76,82.159 267.312,83.785 269.712,85.626 271.943,87.671 273.987,89.901 275.829,92.302 277.455,94.854 278.852,97.537 280.009,100.333 280.919,103.219 281.574,106.172 281.969,109.172 282.101,112.195 281.969,115.218 281.574,118.218 280.919,121.172 280.009,124.057 278.852,126.853 277.455,129.537" fill="none" stroke="var(--stage-accent)" stroke-width="1.4" opacity="0.9" stroke-linejoin="round" stroke-linecap="round"></polyline><polyline points="392.582,161.322 395.605,161.454 398.604,161.849 401.558,162.504 404.444,163.414 407.239,164.572 409.923,165.969 412.475,167.595 414.876,169.437 417.106,171.481 419.15,173.712 420.992,176.112 422.618,178.664 424.015,181.348 425.173,184.143 426.083,187.029 426.738,189.983 427.133,192.983 427.265,196.005 427.133,199.028 426.738,202.028 426.083,204.982 425.173,207.868 424.015,210.663 422.618,213.347 420.992,215.899 419.15,218.299 417.106,220.53 414.876,222.574 412.475,224.416 409.923,226.042 407.239,227.439 404.444,228.597 401.558,229.506 398.604,230.161 395.605,230.556 392.582,230.688 389.559,230.556 386.559,230.161 383.605,229.506 380.72,228.597 377.924,227.439 375.24,226.042" fill="none" stroke="var(--stage-accent)" stroke-width="1.4" opacity="0.9" stroke-linejoin="round" stroke-linecap="round"></polyline><line x1="247.418" y1="112.195" x2="392.582" y2="196.005" stroke="var(--stage-accent)" stroke-width="3" opacity="1" stroke-linecap="round"></line><line x1="392.582" y1="196.005" x2="329.724" y2="304.878" stroke="var(--stage-accent)" stroke-width="3" opacity="1" stroke-linecap="round"></line><line x1="329.724" y1="304.878" x2="247.418" y2="112.195" stroke="var(--stage-warn)" stroke-width="2" opacity="1" stroke-linecap="round" stroke-dasharray="6 6"></line><circle cx="247.418" cy="112.195" r="4.5" fill="var(--stage-accent)" opacity="1"></circle><circle cx="392.582" cy="196.005" r="4.5" fill="var(--stage-accent)" opacity="1"></circle><circle cx="329.724" cy="304.878" r="4.5" fill="var(--stage-warn)" opacity="1"></circle><text x="227.418" y="124.195" fill="var(--stage-accent)" font-size="12" font-weight="600" text-anchor="middle" dominant-baseline="middle" style="paint-order:stroke;stroke:var(--stage-bg);stroke-width:3;stroke-linejoin:round">Port</text><text x="414.582" y="200.005" fill="var(--stage-accent)" font-size="12" font-weight="600" text-anchor="middle" dominant-baseline="middle" style="paint-order:stroke;stroke:var(--stage-bg);stroke-width:3;stroke-linejoin:round">Buoy</text><text x="349.724" y="314.878" fill="var(--stage-warn)" font-size="12" font-weight="600" text-anchor="middle" dominant-baseline="middle" style="paint-order:stroke;stroke:var(--stage-bg);stroke-width:3;stroke-linejoin:round">Ship</text><text x="291.455" y="94.854" fill="var(--stage-accent)" font-size="12" font-weight="600" text-anchor="middle" dominant-baseline="middle" style="paint-order:stroke;stroke:var(--stage-bg);stroke-width:3;stroke-linejoin:round">120°</text><text x="440.083" y="204.982" fill="var(--stage-accent)" font-size="12" font-weight="600" text-anchor="middle" dominant-baseline="middle" style="paint-order:stroke;stroke:var(--stage-bg);stroke-width:3;stroke-linejoin:round">210°</text><text x="288.571" y="226.537" fill="var(--stage-warn)" font-size="12" font-weight="600" text-anchor="middle" dominant-baseline="middle" style="paint-order:stroke;stroke:var(--stage-bg);stroke-width:3;stroke-linejoin:round">10.0 km</text></g><g data-stage-overlay="true"></g></svg>