<svg width="640" height="300" viewBox="0 0 640 300" role="group" aria-label="Ball whirling at 6 m/s on a 3 m string, centripetal force 12 newtons" class="stage-canvas" style="background:var(--stage-bg)"><defs><marker id="stage-arrow" viewBox="0 0 10 10" refX="8" refY="5" markerWidth="7" markerHeight="7" orient="auto-start-reverse"><path d="M0,0 L10,5 L0,10 z" fill="context-stroke"></path></marker></defs><g data-stage-content="true"><ellipse cx="320" cy="150" rx="69" ry="69" stroke="var(--stage-fg)" stroke-width="1.2" fill="none" opacity="0.3"></ellipse><polyline points="276.018,203.165 281.988,207.586 288.399,211.338 295.176,214.38 302.241,216.676 309.512,218.198 316.904,218.931 324.333,218.864 331.711,217.999 338.953,216.346 345.975,213.924 352.697,210.761 359.039,206.894 364.93,202.367 370.299,197.234 375.085,191.553 379.233,185.39 382.694,178.817 385.429,171.91 387.405,164.75 388.6,157.418 389,150" fill="none" stroke="var(--stage-accent)" stroke-width="3.2" opacity="0.5" stroke-linejoin="round" stroke-linecap="round"></polyline><ellipse cx="320" cy="150" rx="7.82" ry="7.82" stroke="var(--stage-fg)" stroke-width="2" fill="var(--stage-bg)" fill-opacity="1" opacity="1"></ellipse><circle cx="320" cy="150" r="4" fill="var(--stage-fg)" opacity="0.82"></circle><line x1="320" y1="150" x2="389" y2="150" stroke="var(--stage-fg)" stroke-width="1.5" opacity="0.5" stroke-linecap="round"></line><line x1="389" y1="150" x2="361.4" y2="150" stroke="var(--stage-warn)" stroke-width="2.75" opacity="1" stroke-linecap="round" marker-end="url(#stage-arrow)"></line><line x1="389" y1="150" x2="389" y2="87.9" stroke="var(--stage-good)" stroke-width="2.75" opacity="1" stroke-linecap="round" marker-end="url(#stage-arrow)"></line><ellipse cx="389" cy="150" rx="10.35" ry="10.35" stroke="var(--stage-accent)" stroke-width="1.5" fill="var(--stage-accent)" fill-opacity="0.9" opacity="1"></ellipse><ellipse cx="389" cy="150" rx="4.14" ry="4.14" stroke="var(--stage-bg)" stroke-width="0" fill="var(--stage-bg)" fill-opacity="0.9" opacity="1"></ellipse></g><g data-stage-overlay="true"></g></svg>