<svg viewBox="0 0 520 188" width="100%" role="img" aria-label="Diode circuit, conducting, lamp lit"><polyline points="45,56 475,56 475,150 45,150 45,56" fill="none" stroke="var(--stage-live)" stroke-width="2" stroke-linejoin="round" stroke-linecap="round"></polyline><g style="pointer-events:none"><circle cx="45" cy="56" r="3.5" fill="var(--stage-live)"></circle><circle cx="106.64705882352942" cy="56" r="3.5" fill="var(--stage-live)"></circle><circle cx="168.29411764705884" cy="56" r="3.5" fill="var(--stage-live)"></circle><circle cx="229.9411764705883" cy="56" r="3.5" fill="var(--stage-live)"></circle><circle cx="291.5882352941177" cy="56" r="3.5" fill="var(--stage-live)"></circle><circle cx="353.23529411764713" cy="56" r="3.5" fill="var(--stage-live)"></circle><circle cx="414.8823529411766" cy="56" r="3.5" fill="var(--stage-live)"></circle><circle cx="475" cy="57.52941176470574" r="3.5" fill="var(--stage-live)"></circle><circle cx="475" cy="119.17647058823542" r="3.5" fill="var(--stage-live)"></circle><circle cx="444.17647058823536" cy="150" r="3.5" fill="var(--stage-live)"></circle><circle cx="382.52941176470574" cy="150" r="3.5" fill="var(--stage-live)"></circle><circle cx="320.8823529411766" cy="150" r="3.5" fill="var(--stage-live)"></circle><circle cx="259.23529411764684" cy="150" r="3.5" fill="var(--stage-live)"></circle><circle cx="197.58823529411768" cy="150" r="3.5" fill="var(--stage-live)"></circle><circle cx="135.9411764705883" cy="150" r="3.5" fill="var(--stage-live)"></circle><circle cx="74.2941176470589" cy="150" r="3.5" fill="var(--stage-live)"></circle><circle cx="45" cy="117.64705882352939" r="3.5" fill="var(--stage-live)"></circle></g><g><g><line x1="82" y1="56" x2="104.5" y2="56" stroke="var(--stage-live)" stroke-width="2" stroke-linecap="round"></line><line x1="115.5" y1="56" x2="138" y2="56" stroke="var(--stage-live)" stroke-width="2" stroke-linecap="round"></line></g><line x1="106.5" y1="43" x2="106.5" y2="69" stroke="var(--stage-cell, oklch(0.58 0.18 28))" stroke-width="2" stroke-linecap="round"></line><line x1="113.5" y1="49" x2="113.5" y2="63" stroke="var(--stage-cell, oklch(0.58 0.18 28))" stroke-width="4.5" stroke-linecap="round"></line><text x="110" y="36" fill="var(--stage-fg)" font-size="11" font-weight="600" text-anchor="middle" style="pointer-events:none;paint-order:stroke;stroke:var(--stage-bg);stroke-width:3.5;stroke-linejoin:round">2 V</text></g><g><g><g><line x1="222" y1="56" x2="234" y2="56" stroke="var(--stage-live)" stroke-width="2" stroke-linecap="round"></line><line x1="266" y1="56" x2="278" y2="56" stroke="var(--stage-live)" stroke-width="2" stroke-linecap="round"></line></g><path d="M 234 43 L 266 56 L 234 69 Z" fill="color-mix(in oklab, var(--stage-diode, oklch(0.56 0.16 290)) 38%, var(--stage-bg))" stroke="var(--stage-diode, oklch(0.56 0.16 290))" stroke-width="2" stroke-linejoin="round"></path><line x1="266" y1="43" x2="266" y2="69" stroke="var(--stage-diode, oklch(0.56 0.16 290))" stroke-width="3" stroke-linecap="round"></line><line x1="235.5" y1="44.5" x2="264.5" y2="55" stroke="color-mix(in oklab, var(--stage-sheen) 45%, transparent)" stroke-width="1.4" stroke-linecap="round"></line><text x="250" y="36" fill="var(--stage-fg)" font-size="11" font-weight="600" text-anchor="middle" style="pointer-events:none;paint-order:stroke;stroke:var(--stage-bg);stroke-width:3.5;stroke-linejoin:round">forward</text></g></g><g><circle cx="400" cy="56" r="28.727450181877625" fill="var(--stage-warn)" opacity="0.35273200485007" style="pointer-events:none"></circle><g><line x1="372" y1="56" x2="384" y2="56" stroke="var(--stage-live)" stroke-width="2" stroke-linecap="round"></line><line x1="416" y1="56" x2="428" y2="56" stroke="var(--stage-live)" stroke-width="2" stroke-linecap="round"></line></g><circle cx="400" cy="56" r="16" fill="color-mix(in oklab, var(--stage-warn, oklch(0.78 0.15 75)) 18%, var(--stage-bg))" stroke="var(--stage-warn, oklch(0.78 0.15 75))" stroke-width="2"></circle><line x1="388.68629150101526" y1="44.68629150101524" x2="411.31370849898474" y2="67.31370849898477" stroke="var(--stage-warn, oklch(0.78 0.15 75))" stroke-width="2.5" stroke-linecap="round"></line><line x1="388.68629150101526" y1="67.31370849898477" x2="411.31370849898474" y2="44.68629150101524" stroke="var(--stage-warn, oklch(0.78 0.15 75))" stroke-width="2.5" stroke-linecap="round"></line><path d="M 390.08 46.08 A 16 16 0 0 1 402.88 42.24" fill="none" stroke="color-mix(in oklab, var(--stage-sheen) 45%, transparent)" stroke-width="1.4" stroke-linecap="round"></path><text x="400" y="33" fill="var(--stage-fg)" font-size="11" font-weight="600" text-anchor="middle" style="pointer-events:none;paint-order:stroke;stroke:var(--stage-bg);stroke-width:3.5;stroke-linejoin:round">lamp</text></g></svg>