<svg viewBox="0 0 640 340" width="100%" role="img" aria-label="Heat flow, total entropy change 1.33 joules per kelvin"><rect x="40" y="130" width="120" height="90" rx="10" fill="color-mix(in oklab, #e23b3b 95%, #2b7fff)" opacity="0.85"></rect><text x="100" y="180" text-anchor="middle" font-size="13" font-weight="800" fill="var(--stage-bg)">HOT</text><text x="100" y="200" text-anchor="middle" font-size="12" fill="var(--stage-bg)">500 K</text><rect x="250" y="130" width="120" height="90" rx="10" fill="color-mix(in oklab, #e23b3b 12%, #2b7fff)" opacity="0.85"></rect><text x="310" y="180" text-anchor="middle" font-size="13" font-weight="800" fill="var(--stage-bg)">COLD</text><text x="310" y="200" text-anchor="middle" font-size="12" fill="var(--stage-bg)">300 K</text><line x1="165" y1="175" x2="245" y2="175" stroke="var(--stage-warn)" stroke-width="3"></line><polygon points="245,175 235,169 235,181" fill="var(--stage-warn)"></polygon><text x="205" y="164" text-anchor="middle" font-size="11" font-weight="700" fill="var(--stage-warn)">Q = 1000 J</text><line x1="420" y1="250" x2="620" y2="250" stroke="var(--stage-grid)" stroke-width="1"></line><text x="520" y="56" text-anchor="middle" font-size="11" fill="var(--stage-muted)">entropy change (J/K)</text><g><rect x="424" y="250" width="52" height="42" rx="3" fill="var(--stage-danger, #e03131)" opacity="0.85"></rect><text x="450" y="270" text-anchor="middle" font-size="11" fill="var(--stage-fg)">hot</text><text x="450" y="306" text-anchor="middle" font-size="11" font-weight="700" fill="var(--stage-danger, #e03131)" style="font-variant-numeric:tabular-nums">−2.00</text></g><g><rect x="494" y="180" width="52" height="70" rx="3" fill="var(--stage-accent, #3b82f6)" opacity="0.85"></rect><text x="520" y="270" text-anchor="middle" font-size="11" fill="var(--stage-fg)">cold</text><text x="520" y="174" text-anchor="middle" font-size="11" font-weight="700" fill="var(--stage-accent, #3b82f6)" style="font-variant-numeric:tabular-nums">+3.33</text></g><g><rect x="564" y="222" width="52" height="28.000000000000004" rx="3" fill="var(--stage-good, #16a34a)" opacity="0.85"></rect><text x="590" y="270" text-anchor="middle" font-size="11" fill="var(--stage-fg)">total</text><text x="590" y="216" text-anchor="middle" font-size="11" font-weight="700" fill="var(--stage-good, #16a34a)" style="font-variant-numeric:tabular-nums">+1.33</text></g></svg>