<svg class="lab-figure physics-impulse-scene" data-fig-domain="physics" viewBox="0 0 720 224" role="img" aria-label="A 0.5 kilogram egg approaches at 8 metres per second and stops against a cushion over 240 milliseconds."><defs><filter id="_R_id_-shadow" x="-20%" y="-20%" width="140%" height="160%"><feDropShadow dx="0" dy="1.5" stdDeviation="2" style="flood-color:var(--fig-shadow)"></feDropShadow></filter><filter id="_R_id_-glow" x="-50%" y="-50%" width="200%" height="200%"><feGaussianBlur stdDeviation="3"></feGaussianBlur></filter></defs><g><rect x="38" y="184" width="644" height="10" fill="var(--fig-ground)" opacity="0.6"></rect><line x1="38" y1="184" x2="682" y2="184" stroke="var(--fig-ink)" stroke-width="1.75" stroke-linecap="round"></line></g><text class="fig-text" data-size="eyebrow" data-tone="soft" x="42" y="30" text-anchor="start">SAME EGG · SAME MOMENTUM</text><text class="fig-text" data-size="eyebrow" data-tone="soft" x="678" y="30" text-anchor="end">ADJUSTABLE CATCH</text><g transform="translate(92 137) rotate(0)"><ellipse cx="0" cy="47" rx="27" ry="5" fill="color-mix(in oklab, var(--fig-ink) 12%, transparent)"></ellipse><path d="M 0 -42 C -27 -39 -36 -7 -31 17 C -27 40 -13 51 0 51 C 13 51 27 40 31 17 C 36 -7 27 -39 0 -42 Z" fill="var(--fig-warn)" stroke="color-mix(in oklab, var(--fig-warn) 70%, var(--fig-ink))" stroke-width="2.5"></path><ellipse cx="-9" cy="-22" rx="8" ry="12" fill="var(--fig-sheen)" opacity="0.55"></ellipse></g><g><line x1="44" y1="72" x2="133.6" y2="72" stroke="var(--fig-hue-1)" stroke-width="3.5" stroke-linecap="round"></line><path d="M 140 72 L 132 76.4 L 132 67.6 Z" fill="var(--fig-hue-1)"></path></g><g><rect x="67" y="35" width="50" height="20" rx="10" fill="var(--fig-hue-1)"></rect><text class="fig-text" data-size="note" data-tone="inverse" x="92" y="45" text-anchor="middle" dominant-baseline="middle">8 m/s</text></g><rect x="632" y="58" width="20" height="126" rx="5" fill="var(--fig-metal)" stroke="var(--fig-outline)" stroke-width="2.5"></rect><rect x="548" y="68" width="84" height="106" rx="14" fill="color-mix(in oklab, var(--fig-good) 12%, transparent)" stroke="color-mix(in oklab, var(--fig-good) 70%, transparent)" stroke-width="1"></rect><rect x="556" y="72" width="76" height="98" rx="14" fill="color-mix(in oklab, var(--fig-good) 19%, transparent)" stroke="color-mix(in oklab, var(--fig-good) 70%, transparent)" stroke-width="1"></rect><rect x="564" y="76" width="68" height="90" rx="14" fill="color-mix(in oklab, var(--fig-good) 26%, transparent)" stroke="color-mix(in oklab, var(--fig-good) 70%, transparent)" stroke-width="1"></rect><rect x="548" y="68" width="84" height="106" rx="14" fill="color-mix(in oklab, var(--fig-good) 16%, transparent)" stroke="var(--fig-good)" stroke-width="2.5"></rect><path d="M 558 91 Q 590 84 622 91" fill="none" stroke="var(--fig-good)" stroke-width="1" opacity="0.55"></path><path d="M 558 116 Q 590 109 622 116" fill="none" stroke="var(--fig-good)" stroke-width="1" opacity="0.55"></path><path d="M 558 141 Q 590 134 622 141" fill="none" stroke="var(--fig-good)" stroke-width="1" opacity="0.55"></path><g><rect x="551" y="35" width="86" height="20" rx="10" fill="var(--fig-good)"></rect><text class="fig-text" data-size="note" data-tone="inverse" x="594" y="45" text-anchor="middle" dominant-baseline="middle">soft catch</text></g><text class="fig-text" data-size="note" data-tone="good" x="594" y="207" text-anchor="middle">longer contact · lower peak</text></svg>