<svg width="640" height="340" viewBox="0 0 640 340" role="group" aria-label="k/x meets |x − 4|" style="display:block;background:var(--stage-bg);border-radius:12px;border:1px solid var(--stage-grid);user-select:none;touch-action:none"><defs><marker id="stage-arrow" viewBox="0 0 10 10" refX="8" refY="5" markerWidth="7" markerHeight="7" orient="auto-start-reverse"><path d="M0,0 L10,5 L0,10 z" fill="context-stroke"></path></marker></defs><g data-stage-content="true"><g><line x1="58.58823529411765" y1="328" x2="58.58823529411765" y2="12" stroke="var(--stage-grid)" stroke-width="1"></line><line x1="110.35294117647058" y1="328" x2="110.35294117647058" y2="12" stroke="var(--stage-grid)" stroke-width="1"></line><line x1="162.11764705882354" y1="328" x2="162.11764705882354" y2="12" stroke="var(--stage-grid)" stroke-width="1"></line><line x1="213.88235294117646" y1="328" x2="213.88235294117646" y2="12" stroke="var(--stage-grid)" stroke-width="1"></line><line x1="265.6470588235294" y1="328" x2="265.6470588235294" y2="12" stroke="var(--stage-grid)" stroke-width="1"></line><line x1="317.4117647058824" y1="328" x2="317.4117647058824" y2="12" stroke="var(--stage-grid)" stroke-width="1"></line><line x1="369.1764705882353" y1="328" x2="369.1764705882353" y2="12" stroke="var(--stage-grid)" stroke-width="1"></line><line x1="420.94117647058823" y1="328" x2="420.94117647058823" y2="12" stroke="var(--stage-grid)" stroke-width="1"></line><line x1="472.7058823529412" y1="328" x2="472.7058823529412" y2="12" stroke="var(--stage-grid)" stroke-width="1"></line><line x1="524.4705882352941" y1="328" x2="524.4705882352941" y2="12" stroke="var(--stage-grid)" stroke-width="1"></line><line x1="576.2352941176471" y1="328" x2="576.2352941176471" y2="12" stroke="var(--stage-grid)" stroke-width="1"></line><line x1="628" y1="328" x2="628" y2="12" stroke="var(--stage-grid)" stroke-width="1"></line><line x1="12" y1="312.95238095238096" x2="628" y2="312.95238095238096" stroke="var(--stage-grid)" stroke-width="1"></line><line x1="12" y1="282.85714285714283" x2="628" y2="282.85714285714283" stroke="var(--stage-grid)" stroke-width="1"></line><line x1="12" y1="252.76190476190476" x2="628" y2="252.76190476190476" stroke="var(--stage-grid)" stroke-width="1"></line><line x1="12" y1="222.66666666666666" x2="628" y2="222.66666666666666" stroke="var(--stage-grid)" stroke-width="1"></line><line x1="12" y1="192.57142857142856" x2="628" y2="192.57142857142856" stroke="var(--stage-grid)" stroke-width="1"></line><line x1="12" y1="162.47619047619048" x2="628" y2="162.47619047619048" stroke="var(--stage-grid)" stroke-width="1"></line><line x1="12" y1="132.38095238095238" x2="628" y2="132.38095238095238" stroke="var(--stage-grid)" stroke-width="1"></line><line x1="12" y1="102.28571428571428" x2="628" y2="102.28571428571428" stroke="var(--stage-grid)" stroke-width="1"></line><line x1="12" y1="72.19047619047619" x2="628" y2="72.19047619047619" stroke="var(--stage-grid)" stroke-width="1"></line><line x1="12" y1="42.095238095238095" x2="628" y2="42.095238095238095" stroke="var(--stage-grid)" stroke-width="1"></line><line x1="12" y1="12" x2="628" y2="12" stroke="var(--stage-grid)" stroke-width="1"></line></g><g><line x1="12" y1="312.95238095238096" x2="628" y2="312.95238095238096" stroke="var(--stage-axis)" stroke-width="1.5"></line><line x1="6.823529411764706" y1="328" x2="6.823529411764706" y2="12" stroke="var(--stage-axis)" stroke-width="1.5"></line><line x1="58.58823529411765" y1="308.95238095238096" x2="58.58823529411765" y2="316.95238095238096" stroke="var(--stage-axis)" stroke-width="1.5"></line><line x1="110.35294117647058" y1="308.95238095238096" x2="110.35294117647058" y2="316.95238095238096" stroke="var(--stage-axis)" stroke-width="1.5"></line><line x1="162.11764705882354" y1="308.95238095238096" x2="162.11764705882354" y2="316.95238095238096" stroke="var(--stage-axis)" stroke-width="1.5"></line><line x1="213.88235294117646" y1="308.95238095238096" x2="213.88235294117646" y2="316.95238095238096" stroke="var(--stage-axis)" stroke-width="1.5"></line><line x1="265.6470588235294" y1="308.95238095238096" x2="265.6470588235294" y2="316.95238095238096" stroke="var(--stage-axis)" stroke-width="1.5"></line><line x1="317.4117647058824" y1="308.95238095238096" x2="317.4117647058824" y2="316.95238095238096" stroke="var(--stage-axis)" stroke-width="1.5"></line><line x1="369.1764705882353" y1="308.95238095238096" x2="369.1764705882353" y2="316.95238095238096" stroke="var(--stage-axis)" stroke-width="1.5"></line><line x1="420.94117647058823" y1="308.95238095238096" x2="420.94117647058823" y2="316.95238095238096" stroke="var(--stage-axis)" stroke-width="1.5"></line><line x1="472.7058823529412" y1="308.95238095238096" x2="472.7058823529412" y2="316.95238095238096" stroke="var(--stage-axis)" stroke-width="1.5"></line><line x1="524.4705882352941" y1="308.95238095238096" x2="524.4705882352941" y2="316.95238095238096" stroke="var(--stage-axis)" stroke-width="1.5"></line><line x1="576.2352941176471" y1="308.95238095238096" x2="576.2352941176471" y2="316.95238095238096" stroke="var(--stage-axis)" stroke-width="1.5"></line><line x1="628" y1="308.95238095238096" x2="628" y2="316.95238095238096" stroke="var(--stage-axis)" stroke-width="1.5"></line><line x1="2.8235294117647056" y1="282.85714285714283" x2="10.823529411764707" y2="282.85714285714283" stroke="var(--stage-axis)" stroke-width="1.5"></line><line x1="2.8235294117647056" y1="252.76190476190476" x2="10.823529411764707" y2="252.76190476190476" stroke="var(--stage-axis)" stroke-width="1.5"></line><line x1="2.8235294117647056" y1="222.66666666666666" x2="10.823529411764707" y2="222.66666666666666" stroke="var(--stage-axis)" stroke-width="1.5"></line><line x1="2.8235294117647056" y1="192.57142857142856" x2="10.823529411764707" y2="192.57142857142856" stroke="var(--stage-axis)" stroke-width="1.5"></line><line x1="2.8235294117647056" y1="162.47619047619048" x2="10.823529411764707" y2="162.47619047619048" stroke="var(--stage-axis)" stroke-width="1.5"></line><line x1="2.8235294117647056" y1="132.38095238095238" x2="10.823529411764707" y2="132.38095238095238" stroke="var(--stage-axis)" stroke-width="1.5"></line><line x1="2.8235294117647056" y1="102.28571428571428" x2="10.823529411764707" y2="102.28571428571428" stroke="var(--stage-axis)" stroke-width="1.5"></line><line x1="2.8235294117647056" y1="72.19047619047619" x2="10.823529411764707" y2="72.19047619047619" stroke="var(--stage-axis)" stroke-width="1.5"></line><line x1="2.8235294117647056" y1="42.095238095238095" x2="10.823529411764707" y2="42.095238095238095" stroke="var(--stage-axis)" stroke-width="1.5"></line><line x1="2.8235294117647056" y1="12" x2="10.823529411764707" y2="12" stroke="var(--stage-axis)" stroke-width="1.5"></line></g><path d="M12.00,195.58 L14.05,196.77 L16.11,197.97 L18.16,199.16 L20.21,200.36 L22.27,201.55 L24.32,202.74 L26.37,203.94 L28.43,205.13 L30.48,206.32 L32.53,207.52 L34.59,208.71 L36.64,209.91 L38.69,211.10 L40.75,212.29 L42.80,213.49 L44.85,214.68 L46.91,215.88 L48.96,217.07 L51.01,218.26 L53.07,219.46 L55.12,220.65 L57.17,221.84 L59.23,223.04 L61.28,224.23 L63.33,225.43 L65.39,226.62 L67.44,227.81 L69.49,229.01 L71.55,230.20 L73.60,231.39 L75.65,232.59 L77.71,233.78 L79.76,234.98 L81.81,236.17 L83.87,237.36 L85.92,238.56 L87.97,239.75 L90.03,240.94 L92.08,242.14 L94.13,243.33 L96.19,244.53 L98.24,245.72 L100.29,246.91 L102.35,248.11 L104.40,249.30 L106.45,250.49 L108.51,251.69 L110.56,252.88 L112.61,254.08 L114.67,255.27 L116.72,256.46 L118.77,257.66 L120.83,258.85 L122.88,260.04 L124.93,261.24 L126.99,262.43 L129.04,263.63 L131.09,264.82 L133.15,266.01 L135.20,267.21 L137.25,268.40 L139.31,269.60 L141.36,270.79 L143.41,271.98 L145.47,273.18 L147.52,274.37 L149.57,275.56 L151.63,276.76 L153.68,277.95 L155.73,279.15 L157.79,280.34 L159.84,281.53 L161.89,282.73 L163.95,283.92 L166.00,285.11 L168.05,286.31 L170.11,287.50 L172.16,288.70 L174.21,289.89 L176.27,291.08 L178.32,292.28 L180.37,293.47 L182.43,294.66 L184.48,295.86 L186.53,297.05 L188.59,298.25 L190.64,299.44 L192.69,300.63 L194.75,301.83 L196.80,303.02 L198.85,304.21 L200.91,305.41 L202.96,306.60 L205.01,307.80 L207.07,308.99 L209.12,310.18 L211.17,311.38 L213.23,312.57 L215.28,312.14 L217.33,310.95 L219.39,309.75 L221.44,308.56 L223.49,307.36 L225.55,306.17 L227.60,304.98 L229.65,303.78 L231.71,302.59 L233.76,301.40 L235.81,300.20 L237.87,299.01 L239.92,297.81 L241.97,296.62 L244.03,295.43 L246.08,294.23 L248.13,293.04 L250.19,291.85 L252.24,290.65 L254.29,289.46 L256.35,288.26 L258.40,287.07 L260.45,285.88 L262.51,284.68 L264.56,283.49 L266.61,282.30 L268.67,281.10 L270.72,279.91 L272.77,278.71 L274.83,277.52 L276.88,276.33 L278.93,275.13 L280.99,273.94 L283.04,272.75 L285.09,271.55 L287.15,270.36 L289.20,269.16 L291.25,267.97 L293.31,266.78 L295.36,265.58 L297.41,264.39 L299.47,263.19 L301.52,262.00 L303.57,260.81 L305.63,259.61 L307.68,258.42 L309.73,257.23 L311.79,256.03 L313.84,254.84 L315.89,253.64 L317.95,252.45 L320.00,251.26 L322.05,250.06 L324.11,248.87 L326.16,247.68 L328.21,246.48 L330.27,245.29 L332.32,244.09 L334.37,242.90 L336.43,241.71 L338.48,240.51 L340.53,239.32 L342.59,238.13 L344.64,236.93 L346.69,235.74 L348.75,234.54 L350.80,233.35 L352.85,232.16 L354.91,230.96 L356.96,229.77 L359.01,228.58 L361.07,227.38 L363.12,226.19 L365.17,224.99 L367.23,223.80 L369.28,222.61 L371.33,221.41 L373.39,220.22 L375.44,219.03 L377.49,217.83 L379.55,216.64 L381.60,215.44 L383.65,214.25 L385.71,213.06 L387.76,211.86 L389.81,210.67 L391.87,209.47 L393.92,208.28 L395.97,207.09 L398.03,205.89 L400.08,204.70 L402.13,203.51 L404.19,202.31 L406.24,201.12 L408.29,199.92 L410.35,198.73 L412.40,197.54 L414.45,196.34 L416.51,195.15 L418.56,193.96 L420.61,192.76 L422.67,191.57 L424.72,190.37 L426.77,189.18 L428.83,187.99 L430.88,186.79 L432.93,185.60 L434.99,184.41 L437.04,183.21 L439.09,182.02 L441.15,180.82 L443.20,179.63 L445.25,178.44 L447.31,177.24 L449.36,176.05 L451.41,174.86 L453.47,173.66 L455.52,172.47 L457.57,171.27 L459.63,170.08 L461.68,168.89 L463.73,167.69 L465.79,166.50 L467.84,165.31 L469.89,164.11 L471.95,162.92 L474.00,161.72 L476.05,160.53 L478.11,159.34 L480.16,158.14 L482.21,156.95 L484.27,155.75 L486.32,154.56 L488.37,153.37 L490.43,152.17 L492.48,150.98 L494.53,149.79 L496.59,148.59 L498.64,147.40 L500.69,146.20 L502.75,145.01 L504.80,143.82 L506.85,142.62 L508.91,141.43 L510.96,140.24 L513.01,139.04 L515.07,137.85 L517.12,136.65 L519.17,135.46 L521.23,134.27 L523.28,133.07 L525.33,131.88 L527.39,130.69 L529.44,129.49 L531.49,128.30 L533.55,127.10 L535.60,125.91 L537.65,124.72 L539.71,123.52 L541.76,122.33 L543.81,121.14 L545.87,119.94 L547.92,118.75 L549.97,117.55 L552.03,116.36 L554.08,115.17 L556.13,113.97 L558.19,112.78 L560.24,111.59 L562.29,110.39 L564.35,109.20 L566.40,108.00 L568.45,106.81 L570.51,105.62 L572.56,104.42 L574.61,103.23 L576.67,102.03 L578.72,100.84 L580.77,99.65 L582.83,98.45 L584.88,97.26 L586.93,96.07 L588.99,94.87 L591.04,93.68 L593.09,92.48 L595.15,91.29 L597.20,90.10 L599.25,88.90 L601.31,87.71 L603.36,86.52 L605.41,85.32 L607.47,84.13 L609.52,82.93 L611.57,81.74 L613.63,80.55 L615.68,79.35 L617.73,78.16 L619.79,76.97 L621.84,75.77 L623.89,74.58 L625.95,73.38 L628.00,72.19 " fill="none" stroke="var(--stage-accent)" stroke-width="2.5" opacity="1" stroke-linejoin="round" stroke-linecap="round"></path><path d="M12.00,-288.95 L14.05,-118.01 L16.11,-22.68 L18.16,38.11 L20.21,80.26 L22.27,111.20 L24.32,134.87 L26.37,153.58 L28.43,168.73 L30.48,181.24 L32.53,191.76 L34.59,200.73 L36.64,208.46 L38.69,215.19 L40.75,221.11 L42.80,226.35 L44.85,231.02 L46.91,235.22 L48.96,239.01 L51.01,242.44 L53.07,245.57 L55.12,248.44 L57.17,251.07 L59.23,253.50 L61.28,255.74 L63.33,257.82 L65.39,259.75 L67.44,261.55 L69.49,263.24 L71.55,264.81 L73.60,266.29 L75.65,267.69 L77.71,269.00 L79.76,270.23 L81.81,271.40 L83.87,272.51 L85.92,273.56 L87.97,274.56 L90.03,275.50 L92.08,276.41 L94.13,277.27 L96.19,278.09 L98.24,278.87 L100.29,279.62 L102.35,280.33 L104.40,281.02 L106.45,281.68 L108.51,282.31 L110.56,282.92 L112.61,283.50 L114.67,284.06 L116.72,284.60 L118.77,285.12 L120.83,285.62 L122.88,286.11 L124.93,286.57 L126.99,287.02 L129.04,287.46 L131.09,287.88 L133.15,288.29 L135.20,288.68 L137.25,289.06 L139.31,289.43 L141.36,289.79 L143.41,290.14 L145.47,290.48 L147.52,290.81 L149.57,291.13 L151.63,291.44 L153.68,291.74 L155.73,292.03 L157.79,292.31 L159.84,292.59 L161.89,292.86 L163.95,293.12 L166.00,293.38 L168.05,293.63 L170.11,293.87 L172.16,294.11 L174.21,294.34 L176.27,294.56 L178.32,294.78 L180.37,295.00 L182.43,295.21 L184.48,295.41 L186.53,295.61 L188.59,295.81 L190.64,296.00 L192.69,296.19 L194.75,296.37 L196.80,296.55 L198.85,296.73 L200.91,296.90 L202.96,297.07 L205.01,297.23 L207.07,297.39 L209.12,297.55 L211.17,297.71 L213.23,297.86 L215.28,298.01 L217.33,298.15 L219.39,298.29 L221.44,298.43 L223.49,298.57 L225.55,298.71 L227.60,298.84 L229.65,298.97 L231.71,299.10 L233.76,299.22 L235.81,299.35 L237.87,299.47 L239.92,299.59 L241.97,299.70 L244.03,299.82 L246.08,299.93 L248.13,300.04 L250.19,300.15 L252.24,300.26 L254.29,300.36 L256.35,300.47 L258.40,300.57 L260.45,300.67 L262.51,300.77 L264.56,300.86 L266.61,300.96 L268.67,301.05 L270.72,301.15 L272.77,301.24 L274.83,301.33 L276.88,301.42 L278.93,301.50 L280.99,301.59 L283.04,301.67 L285.09,301.76 L287.15,301.84 L289.20,301.92 L291.25,302.00 L293.31,302.08 L295.36,302.15 L297.41,302.23 L299.47,302.31 L301.52,302.38 L303.57,302.45 L305.63,302.52 L307.68,302.60 L309.73,302.67 L311.79,302.74 L313.84,302.80 L315.89,302.87 L317.95,302.94 L320.00,303.00 L322.05,303.07 L324.11,303.13 L326.16,303.20 L328.21,303.26 L330.27,303.32 L332.32,303.38 L334.37,303.44 L336.43,303.50 L338.48,303.56 L340.53,303.62 L342.59,303.67 L344.64,303.73 L346.69,303.78 L348.75,303.84 L350.80,303.89 L352.85,303.95 L354.91,304.00 L356.96,304.05 L359.01,304.11 L361.07,304.16 L363.12,304.21 L365.17,304.26 L367.23,304.31 L369.28,304.36 L371.33,304.40 L373.39,304.45 L375.44,304.50 L377.49,304.55 L379.55,304.59 L381.60,304.64 L383.65,304.68 L385.71,304.73 L387.76,304.77 L389.81,304.82 L391.87,304.86 L393.92,304.90 L395.97,304.95 L398.03,304.99 L400.08,305.03 L402.13,305.07 L404.19,305.11 L406.24,305.15 L408.29,305.19 L410.35,305.23 L412.40,305.27 L414.45,305.31 L416.51,305.35 L418.56,305.39 L420.61,305.42 L422.67,305.46 L424.72,305.50 L426.77,305.53 L428.83,305.57 L430.88,305.60 L432.93,305.64 L434.99,305.68 L437.04,305.71 L439.09,305.74 L441.15,305.78 L443.20,305.81 L445.25,305.85 L447.31,305.88 L449.36,305.91 L451.41,305.94 L453.47,305.98 L455.52,306.01 L457.57,306.04 L459.63,306.07 L461.68,306.10 L463.73,306.13 L465.79,306.16 L467.84,306.19 L469.89,306.22 L471.95,306.25 L474.00,306.28 L476.05,306.31 L478.11,306.34 L480.16,306.37 L482.21,306.40 L484.27,306.43 L486.32,306.45 L488.37,306.48 L490.43,306.51 L492.48,306.54 L494.53,306.56 L496.59,306.59 L498.64,306.62 L500.69,306.64 L502.75,306.67 L504.80,306.70 L506.85,306.72 L508.91,306.75 L510.96,306.77 L513.01,306.80 L515.07,306.82 L517.12,306.85 L519.17,306.87 L521.23,306.90 L523.28,306.92 L525.33,306.94 L527.39,306.97 L529.44,306.99 L531.49,307.01 L533.55,307.04 L535.60,307.06 L537.65,307.08 L539.71,307.11 L541.76,307.13 L543.81,307.15 L545.87,307.17 L547.92,307.19 L549.97,307.22 L552.03,307.24 L554.08,307.26 L556.13,307.28 L558.19,307.30 L560.24,307.32 L562.29,307.34 L564.35,307.36 L566.40,307.38 L568.45,307.40 L570.51,307.42 L572.56,307.44 L574.61,307.46 L576.67,307.48 L578.72,307.50 L580.77,307.52 L582.83,307.54 L584.88,307.56 L586.93,307.58 L588.99,307.60 L591.04,307.62 L593.09,307.64 L595.15,307.66 L597.20,307.67 L599.25,307.69 L601.31,307.71 L603.36,307.73 L605.41,307.75 L607.47,307.77 L609.52,307.78 L611.57,307.80 L613.63,307.82 L615.68,307.84 L617.73,307.85 L619.79,307.87 L621.84,307.89 L623.89,307.90 L625.95,307.92 L628.00,307.94 " fill="none" stroke="var(--stage-accent-2)" stroke-width="2.5" opacity="1" stroke-linejoin="round" stroke-linecap="round"></path><circle cx="37.147" cy="210.201" r="5" fill="var(--stage-good)" opacity="1"></circle><circle cx="183.559" cy="295.323" r="5" fill="var(--stage-good)" opacity="1"></circle><circle cx="237.15" cy="299.425" r="5" fill="var(--stage-good)" opacity="1"></circle></g><g data-stage-overlay="true"></g></svg>