<svg width="640" height="360" viewBox="0 0 640 360" role="group" aria-label="car and velocity triangle" style="display:block;background:transparent;border-radius:12px;border:1px solid var(--stage-grid);user-select:none;touch-action:none"><defs><marker id="stage-arrow" viewBox="0 0 10 10" refX="8" refY="5" markerWidth="7" markerHeight="7" orient="auto-start-reverse"><path d="M0,0 L10,5 L0,10 z" fill="context-stroke"></path></marker></defs><g data-stage-content="true"><line x1="12" y1="285" x2="628" y2="285" stroke="var(--stage-fg)" stroke-width="2" opacity="0.5" stroke-linecap="round"></line><g transform="translate(320 285)"><defs><linearGradient id="rr-car-body" x1="0" y1="0" x2="0" y2="1"><stop offset="0" stop-color="color-mix(in oklab, var(--stage-accent-2) 82%, white)"></stop><stop offset="1" stop-color="var(--stage-accent-2)"></stop></linearGradient></defs><ellipse cx="0" cy="-2" rx="94" ry="7" fill="#000" opacity="0.16"></ellipse><path d="M -88 -16 Q -96 -16 -96 -28 L -96 -33 Q -96 -44 -80 -45 L 78 -45 Q 94 -44 94 -31 L 94 -22 Q 94 -16 86 -16 Z" fill="url(#rr-car-body)" stroke="color-mix(in oklab, var(--stage-accent-2) 58%, black)" stroke-width="2" stroke-linejoin="round"></path><path d="M -54 -45 Q -46 -69 -18 -69 L 26 -69 Q 48 -69 58 -45 Z" fill="url(#rr-car-body)" stroke="color-mix(in oklab, var(--stage-accent-2) 58%, black)" stroke-width="2" stroke-linejoin="round"></path><path d="M -46 -47 Q -40 -64 -18 -64 L -4 -64 L -4 -47 Z" fill="#dceeff" opacity="0.92"></path><path d="M 2 -47 L 2 -64 L 24 -64 Q 44 -64 52 -47 Z" fill="#dceeff" opacity="0.92"></path><ellipse cx="88" cy="-27" rx="5" ry="4" fill="#ffe07a"></ellipse><line x1="-2" y1="-45" x2="-2" y2="-18" stroke="color-mix(in oklab, var(--stage-accent-2) 58%, black)" stroke-width="1.4" opacity="0.5"></line><g><circle cx="-50" cy="-14" r="16" fill="#2b2b2b"></circle><circle cx="-50" cy="-14" r="9.5" fill="#d7d7d7"></circle><g transform="rotate(0 -50 -14)" stroke="#8c8c8c" stroke-width="2.4" stroke-linecap="round"><line x1="-50" y1="-23" x2="-50" y2="-5"></line><line x1="-59" y1="-14" x2="-41" y2="-14"></line><line x1="-56.4" y1="-20.4" x2="-43.6" y2="-7.6"></line><line x1="-56.4" y1="-7.6" x2="-43.6" y2="-20.4"></line></g><circle cx="-50" cy="-14" r="3" fill="#555"></circle></g><g><circle cx="54" cy="-14" r="16" fill="#2b2b2b"></circle><circle cx="54" cy="-14" r="9.5" fill="#d7d7d7"></circle><g transform="rotate(0 54 -14)" stroke="#8c8c8c" stroke-width="2.4" stroke-linecap="round"><line x1="54" y1="-23" x2="54" y2="-5"></line><line x1="45" y1="-14" x2="63" y2="-14"></line><line x1="47.6" y1="-20.4" x2="60.4" y2="-7.6"></line><line x1="47.6" y1="-7.6" x2="60.4" y2="-20.4"></line></g><circle cx="54" cy="-14" r="3" fill="#555"></circle></g></g><line x1="458.6" y1="87.6" x2="458.6" y2="184.2" stroke="var(--stage-accent)" stroke-width="2.5" opacity="1" stroke-linecap="round" marker-end="url(#stage-arrow)"></line><text x="474.6" y="151.9" fill="var(--stage-accent)" font-size="12" font-weight="600" text-anchor="middle" dominant-baseline="middle" style="paint-order:stroke;stroke:var(--stage-bg);stroke-width:3;stroke-linejoin:round">rain</text><line x1="458.6" y1="184.2" x2="458.6" y2="184.2" stroke="var(--stage-muted)" stroke-width="1.5" opacity="1" stroke-linecap="round" stroke-dasharray="6 6"></line><line x1="458.6" y1="87.6" x2="458.6" y2="184.2" stroke="var(--stage-warn)" stroke-width="3.5" opacity="1" stroke-linecap="round" marker-end="url(#stage-arrow)"></line><text x="448.6" y="198.2" fill="var(--stage-warn)" font-size="12" font-weight="600" text-anchor="middle" dominant-baseline="middle" style="paint-order:stroke;stroke:var(--stage-bg);stroke-width:3;stroke-linejoin:round">apparent</text><path d="M 458.59999999999997 111.6 A 24 24 0 0 0 458.59999999999997 111.6" fill="none" stroke="var(--stage-fg)" stroke-width="1.6" opacity="0.85"></path><text x="458.59999999999997" y="124.6" fill="var(--stage-fg)" font-size="13" font-weight="600" text-anchor="middle" dominant-baseline="middle" style="paint-order:stroke;stroke:var(--stage-bg);stroke-width:3.5;stroke-linejoin:round">0°</text></g><g data-stage-overlay="true"></g></svg>