<svg class="lab-figure" data-fig-domain="physics" viewBox="0 0 568 312" role="img" aria-label="Light clock at 0.60 c; ship elapsed 0.00, platform elapsed 0.00"><defs><filter id="_R_id_-shadow" x="-20%" y="-20%" width="140%" height="160%"><feDropShadow dx="0" dy="1.5" stdDeviation="2" style="flood-color:var(--fig-shadow)"></feDropShadow></filter><filter id="_R_id_-glow" x="-50%" y="-50%" width="200%" height="200%"><feGaussianBlur stdDeviation="3"></feGaussianBlur></filter></defs><text class="fig-text" data-size="title" x="110" y="26" text-anchor="middle">ship frame</text><text class="fig-text" data-size="title" x="402" y="26" text-anchor="middle">platform frame</text><path d="M 222 40 L 222 256" fill="none" stroke="var(--fig-glass)" stroke-width="1" stroke-linecap="round" stroke-linejoin="round"></path><g><g><rect x="60" y="56" width="100" height="8" rx="2" fill="var(--fig-metal)" stroke="color-mix(in oklab, var(--fig-metal) 70%, var(--fig-ink))" stroke-width="1"></rect><rect x="62.5" y="58.5" width="95" height="1.5" rx="1.2" fill="var(--fig-sheen)" opacity="0.28"></rect></g><g><rect x="60" y="232" width="100" height="8" rx="2" fill="var(--fig-metal)" stroke="color-mix(in oklab, var(--fig-metal) 70%, var(--fig-ink))" stroke-width="1"></rect><rect x="62.5" y="234.5" width="95" height="1.5" rx="1.2" fill="var(--fig-sheen)" opacity="0.28"></rect></g></g><path d="M 110 225 L 110 71" fill="none" stroke="color-mix(in oklab, var(--fig-hue-2) 45%, transparent)" stroke-width="1" stroke-linecap="round" stroke-linejoin="round" stroke-dasharray="3 2.5"></path><g><circle cx="110" cy="225" r="7" fill="none" stroke="var(--fig-hue-2)" stroke-width="1.75" opacity="1"></circle><circle cx="110" cy="225" r="7" fill="var(--fig-hue-2)" stroke="color-mix(in oklab, var(--fig-hue-2) 70%, var(--fig-ink))" stroke-width="1"></circle><ellipse cx="107.9" cy="222.62" rx="2.24" ry="1.54" fill="var(--fig-sheen)" opacity="0.45"></ellipse></g><g opacity="0.3"><g><rect x="290" y="56" width="100" height="8" rx="2" fill="var(--fig-metal)" stroke="color-mix(in oklab, var(--fig-metal) 70%, var(--fig-ink))" stroke-width="1"></rect><rect x="292.5" y="58.5" width="95" height="1.5" rx="1.2" fill="var(--fig-sheen)" opacity="0.28"></rect></g><g><rect x="290" y="232" width="100" height="8" rx="2" fill="var(--fig-metal)" stroke="color-mix(in oklab, var(--fig-metal) 70%, var(--fig-ink))" stroke-width="1"></rect><rect x="292.5" y="234.5" width="95" height="1.5" rx="1.2" fill="var(--fig-sheen)" opacity="0.28"></rect></g></g><g><g><rect x="290" y="56" width="100" height="8" rx="2" fill="var(--fig-metal)" stroke="color-mix(in oklab, var(--fig-metal) 70%, var(--fig-ink))" stroke-width="1"></rect><rect x="292.5" y="58.5" width="95" height="1.5" rx="1.2" fill="var(--fig-sheen)" opacity="0.28"></rect></g><g><rect x="290" y="232" width="100" height="8" rx="2" fill="var(--fig-metal)" stroke="color-mix(in oklab, var(--fig-metal) 70%, var(--fig-ink))" stroke-width="1"></rect><rect x="292.5" y="234.5" width="95" height="1.5" rx="1.2" fill="var(--fig-sheen)" opacity="0.28"></rect></g></g><path d="M 340 225 L 377.5 71 L 415 225" fill="none" stroke="color-mix(in oklab, var(--fig-hue-2) 45%, transparent)" stroke-width="1" stroke-linecap="round" stroke-linejoin="round" stroke-dasharray="3 2.5"></path><g><circle cx="340" cy="225" r="7" fill="none" stroke="var(--fig-hue-2)" stroke-width="1.75" opacity="1"></circle><circle cx="340" cy="225" r="7" fill="var(--fig-hue-2)" stroke="color-mix(in oklab, var(--fig-hue-2) 70%, var(--fig-ink))" stroke-width="1"></circle><ellipse cx="337.9" cy="222.62" rx="2.24" ry="1.54" fill="var(--fig-sheen)" opacity="0.45"></ellipse></g><g><line x1="398" y1="60" x2="420.4" y2="60" stroke="var(--fig-hue-1)" stroke-width="1.75" stroke-linecap="round"></line><path d="M 426 60 L 419 63.85 L 419 56.15 Z" fill="var(--fig-hue-1)"></path><text class="fig-text" data-size="note" x="412" y="71.75" text-anchor="middle" dominant-baseline="middle">v</text></g><g><g><g><circle cx="58" cy="268" r="12" fill="var(--fig-paper)" stroke="color-mix(in oklab, var(--fig-paper) 70%, var(--fig-ink))" stroke-width="1"></circle><ellipse cx="54.4" cy="263.92" rx="3.84" ry="2.64" fill="var(--fig-sheen)" opacity="0.45"></ellipse></g><path d="M 58 258.4 L 58 256.96" fill="none" stroke="var(--fig-ink-soft)" stroke-width="1" stroke-linecap="round" stroke-linejoin="round"></path><path d="M 67.6 268 L 69.04 268" fill="none" stroke="var(--fig-ink-soft)" stroke-width="1" stroke-linecap="round" stroke-linejoin="round"></path><path d="M 58 277.6 L 58 279.04" fill="none" stroke="var(--fig-ink-soft)" stroke-width="1" stroke-linecap="round" stroke-linejoin="round"></path><path d="M 48.4 268 L 46.96 268" fill="none" stroke="var(--fig-ink-soft)" stroke-width="1" stroke-linecap="round" stroke-linejoin="round"></path><path d="M 58 268 L 58 262.6" fill="none" stroke="var(--fig-ink)" stroke-width="1.75" stroke-linecap="round" stroke-linejoin="round"></path><path d="M 58 268 L 58 259.36" fill="none" stroke="var(--fig-ink)" stroke-width="1.75" stroke-linecap="round" stroke-linejoin="round"></path><circle cx="58" cy="268" r="1.6" fill="var(--fig-ink)" stroke="color-mix(in oklab, var(--fig-ink) 70%, var(--fig-ink))" stroke-width="1"></circle></g><text class="fig-text" data-size="measure" x="76" y="273" text-anchor="start">Δτ 0.00 s</text></g><g><g><g><circle cx="350" cy="268" r="12" fill="var(--fig-paper)" stroke="color-mix(in oklab, var(--fig-paper) 70%, var(--fig-ink))" stroke-width="1"></circle><ellipse cx="346.4" cy="263.92" rx="3.84" ry="2.64" fill="var(--fig-sheen)" opacity="0.45"></ellipse></g><path d="M 350 258.4 L 350 256.96" fill="none" stroke="var(--fig-ink-soft)" stroke-width="1" stroke-linecap="round" stroke-linejoin="round"></path><path d="M 359.6 268 L 361.04 268" fill="none" stroke="var(--fig-ink-soft)" stroke-width="1" stroke-linecap="round" stroke-linejoin="round"></path><path d="M 350 277.6 L 350 279.04" fill="none" stroke="var(--fig-ink-soft)" stroke-width="1" stroke-linecap="round" stroke-linejoin="round"></path><path d="M 340.4 268 L 338.96 268" fill="none" stroke="var(--fig-ink-soft)" stroke-width="1" stroke-linecap="round" stroke-linejoin="round"></path><path d="M 350 268 L 350 262.6" fill="none" stroke="var(--fig-ink)" stroke-width="1.75" stroke-linecap="round" stroke-linejoin="round"></path><path d="M 350 268 L 350 259.36" fill="none" stroke="var(--fig-ink)" stroke-width="1.75" stroke-linecap="round" stroke-linejoin="round"></path><circle cx="350" cy="268" r="1.6" fill="var(--fig-ink)" stroke="color-mix(in oklab, var(--fig-ink) 70%, var(--fig-ink))" stroke-width="1"></circle></g><text class="fig-text" data-size="measure" x="368" y="273" text-anchor="start">Δt 0.00 s</text></g><g><circle cx="60" cy="301" r="5" fill="var(--fig-hue-2)" stroke="color-mix(in oklab, var(--fig-hue-2) 70%, var(--fig-ink))" stroke-width="1"></circle></g><text class="fig-text" data-size="note" data-tone="soft" x="70" y="301" text-anchor="start" dominant-baseline="middle">light pulse</text><g><rect x="150" y="298" width="18" height="6" rx="2" fill="var(--fig-metal)" stroke="color-mix(in oklab, var(--fig-metal) 70%, var(--fig-ink))" stroke-width="1"></rect><rect x="152.5" y="300.5" width="13" height="1.5" rx="1.2" fill="var(--fig-sheen)" opacity="0.28"></rect></g><text class="fig-text" data-size="note" data-tone="soft" x="174" y="301" text-anchor="start" dominant-baseline="middle">mirror</text></svg>